<svg width="10" height="13" viewBox="0 0 10 13" fill="none" xmlns="http://www.w3.org/2000/svg">
<path d="M4.99676 12.2595C4.79017 12.2595 4.62017 12.1928 4.48675 12.0594C4.35764 11.9259 4.29308 11.7538 4.29308 11.5429V3.5313L4.37055 1.42672L4.79663 1.63976L2.64041 4.03485L1.1814 5.48094C1.11685 5.5455 1.04153 5.59714 0.955453 5.63588C0.869376 5.67031 0.776843 5.68752 0.677855 5.68752C0.484182 5.68752 0.322788 5.62297 0.193673 5.49385C0.0645576 5.36474 0 5.20119 0 5.00321C0 4.80954 0.0731653 4.63739 0.219496 4.48675L4.47384 0.225952C4.54701 0.152786 4.62878 0.0968364 4.71916 0.0581018C4.80954 0.0193673 4.90207 0 4.99676 0C5.09575 0 5.19043 0.0193673 5.28081 0.0581018C5.3755 0.0968364 5.45727 0.152786 5.52613 0.225952L9.78048 4.48675C9.92681 4.63739 9.99997 4.80954 9.99997 5.00321C9.99997 5.20119 9.93541 5.36474 9.8063 5.49385C9.67718 5.62297 9.51579 5.68752 9.32212 5.68752C9.22313 5.68752 9.1306 5.67031 9.04452 5.63588C8.95844 5.59714 8.88313 5.5455 8.81857 5.48094L7.35311 4.03485L5.19689 1.63976L5.62942 1.42672L5.70689 3.5313V11.5429C5.70689 11.7538 5.64018 11.9259 5.50676 12.0594C5.37765 12.1928 5.20765 12.2595 4.99676 12.2595Z" fill="#474747"/>
</svg>
