<svg width="42" height="36" viewBox="0 0 42 36" fill="none" xmlns="http://www.w3.org/2000/svg">
<g filter="url(#filter0_f_172_2262)">
<rect x="4.94171" y="27.5107" width="31.7246" height="2.5829" transform="rotate(1.5 4.94171 27.5107)" fill="#DCA84F"/>
</g>
<path d="M1.67097 1.82716C1.69739 0.818021 2.53686 0.0214214 3.54597 0.047846L14.0025 0.32166C15.0116 0.348083 15.8082 1.18752 15.7818 2.19661L15.7104 4.927C15.684 5.93608 16.4806 6.77553 17.4897 6.80195L20.9293 6.89202L30.1211 7.13272L37.4858 7.32557C38.495 7.35199 39.2916 8.19149 39.2651 9.20058L38.7943 27.1782C38.7678 28.1872 37.9284 28.9839 36.9192 28.9575L2.81234 28.0644C1.80322 28.0379 1.0066 27.1984 1.03302 26.1893L1.67097 1.82716Z" fill="url(#paint0_linear_172_2262)" fill-opacity="0.47"/>
<path d="M1.67097 1.82716C1.69739 0.818021 2.53686 0.0214214 3.54597 0.047846L14.0025 0.32166C15.0116 0.348083 15.8082 1.18752 15.7818 2.19661L15.7104 4.927C15.684 5.93608 16.4806 6.77553 17.4897 6.80195L20.9293 6.89202L30.1211 7.13272L37.4858 7.32557C38.495 7.35199 39.2916 8.19149 39.2651 9.20058L38.7943 27.1782C38.7678 28.1872 37.9284 28.9839 36.9192 28.9575L2.81234 28.0644C1.80322 28.0379 1.0066 27.1984 1.03302 26.1893L1.67097 1.82716Z" fill="#F7D22E" fill-opacity="0.46"/>
<path d="M3.53833 0.352438L13.9947 0.626248C14.8355 0.648367 15.4997 1.34819 15.4777 2.18904L15.4063 4.91858C15.3754 6.09579 16.3043 7.07554 17.4815 7.10646L37.4776 7.63008C38.3186 7.6521 38.9827 8.35197 38.9607 9.19287L38.4899 27.1701C38.4679 28.011 37.7681 28.6752 36.9271 28.6531L2.82064 27.76C1.97972 27.738 1.31558 27.0381 1.3376 26.1972L1.97554 1.83547C1.99756 0.994521 2.6974 0.330417 3.53833 0.352438Z" stroke="black" stroke-opacity="0.04" stroke-width="0.609263"/>
<defs>
<filter id="filter0_f_172_2262" x="-2.24113e-05" y="22.6366" width="41.5296" height="13.1606" filterUnits="userSpaceOnUse" color-interpolation-filters="sRGB">
<feFlood flood-opacity="0" result="BackgroundImageFix"/>
<feBlend mode="normal" in="SourceGraphic" in2="BackgroundImageFix" result="shape"/>
<feGaussianBlur stdDeviation="2.43705" result="effect1_foregroundBlur_172_2262"/>
</filter>
<linearGradient id="paint0_linear_172_2262" x1="28.9349" y1="1.16125" x2="28.2013" y2="29.1777" gradientUnits="userSpaceOnUse">
<stop stop-color="#F7F8FA"/>
<stop offset="1" stop-color="#ECF0F3"/>
</linearGradient>
</defs>
</svg>
